<svg id="svg" version="1.1" xmlns="http://www.w3.org/2000/svg" xmlns:xlink="http://www.w3.org/1999/xlink" width="400" height="121.66666666666667" viewBox="0, 0, 400,121.66666666666667"><g id="svgg"><path id="path0" d="M0.108 0.781 C 0.049 0.840,-0.000 28.064,-0.000 61.278 L 0.000 121.667 200.000 121.667 L 400.000 121.667 400.000 87.847 C 400.000 53.936,399.994 53.500,399.566 53.500 C 399.438 53.500,399.333 53.416,399.333 53.314 C 399.333 53.210,399.186 53.166,399.000 53.215 C 398.817 53.263,398.667 53.230,398.667 53.141 C 398.667 53.053,398.592 53.026,398.501 53.082 C 398.410 53.139,398.133 52.982,397.885 52.733 C 397.622 52.470,397.407 52.362,397.370 52.473 C 397.295 52.697,396.833 52.300,396.833 52.012 C 396.833 51.914,396.754 51.833,396.657 51.833 C 396.560 51.833,396.528 51.927,396.586 52.042 C 396.644 52.156,396.538 52.076,396.351 51.862 C 396.163 51.649,395.932 51.522,395.838 51.580 C 395.744 51.639,395.667 51.602,395.667 51.500 C 395.667 51.398,395.591 51.360,395.499 51.417 C 395.407 51.474,395.286 51.404,395.231 51.261 C 395.176 51.117,394.989 51.000,394.816 51.000 C 394.642 51.000,394.500 50.916,394.500 50.813 C 394.500 50.684,394.423 50.690,394.250 50.833 C 394.045 51.003,394.000 50.992,394.000 50.770 C 394.000 50.622,393.921 50.500,393.823 50.500 C 393.726 50.500,393.701 50.587,393.766 50.692 C 393.842 50.815,393.811 50.839,393.681 50.759 C 393.569 50.690,393.518 50.528,393.567 50.400 C 393.618 50.265,393.553 50.167,393.411 50.167 C 393.277 50.167,393.167 50.098,393.167 50.013 C 393.167 49.929,392.923 49.812,392.625 49.754 C 391.860 49.603,391.326 49.313,391.450 49.113 C 391.513 49.011,391.445 48.985,391.277 49.050 C 391.125 49.108,391.000 49.084,391.000 48.995 C 391.000 48.906,390.855 48.833,390.678 48.833 C 390.497 48.833,390.307 48.680,390.245 48.485 C 390.169 48.244,390.036 48.162,389.817 48.219 C 389.643 48.265,389.500 48.230,389.500 48.141 C 389.500 48.053,389.424 48.027,389.332 48.084 C 389.240 48.141,389.119 48.071,389.064 47.927 C 389.009 47.784,388.866 47.667,388.746 47.667 C 388.626 47.667,388.484 47.573,388.431 47.458 C 388.353 47.293,388.313 47.293,388.237 47.457 C 388.163 47.615,388.080 47.604,387.890 47.414 C 387.752 47.276,387.571 47.206,387.487 47.258 C 387.402 47.310,387.333 47.268,387.333 47.165 C 387.333 46.874,386.900 46.508,386.480 46.444 C 386.271 46.412,386.072 46.299,386.037 46.193 C 386.001 46.087,385.899 46.000,385.810 46.000 C 385.720 46.000,385.695 46.094,385.753 46.208 C 385.811 46.323,385.705 46.242,385.517 46.029 C 385.330 45.816,385.099 45.689,385.005 45.747 C 384.910 45.805,384.833 45.774,384.833 45.677 C 384.833 45.579,384.721 45.500,384.583 45.500 C 384.446 45.500,384.333 45.432,384.333 45.349 C 384.333 45.266,384.183 45.237,384.000 45.285 C 383.806 45.336,383.667 45.290,383.667 45.176 C 383.667 45.069,383.742 45.027,383.833 45.083 C 383.925 45.140,384.000 45.108,384.000 45.012 C 384.000 44.916,383.697 44.789,383.327 44.730 C 382.940 44.668,382.557 44.483,382.424 44.293 C 382.297 44.112,382.112 44.014,382.013 44.075 C 381.914 44.136,381.833 44.107,381.833 44.010 C 381.833 43.913,381.683 43.833,381.500 43.833 C 381.317 43.833,381.167 43.758,381.167 43.667 C 381.167 43.575,381.012 43.500,380.823 43.500 C 380.635 43.500,380.527 43.425,380.583 43.333 C 380.677 43.182,380.454 43.094,380.120 43.148 C 380.049 43.160,379.947 43.057,379.894 42.918 C 379.841 42.780,379.693 42.667,379.566 42.667 C 379.438 42.667,379.333 42.583,379.333 42.481 C 379.333 42.377,379.186 42.333,379.000 42.382 C 378.817 42.430,378.667 42.401,378.667 42.318 C 378.667 42.235,378.521 42.167,378.343 42.167 C 378.165 42.167,377.894 41.998,377.742 41.792 C 377.558 41.543,377.439 41.486,377.386 41.624 C 377.294 41.862,376.833 41.491,376.833 41.179 C 376.833 41.080,376.754 41.000,376.657 41.000 C 376.560 41.000,376.528 41.094,376.586 41.208 C 376.644 41.323,376.538 41.242,376.351 41.029 C 376.163 40.816,375.932 40.689,375.838 40.747 C 375.744 40.805,375.667 40.769,375.667 40.667 C 375.667 40.564,375.591 40.527,375.499 40.584 C 375.407 40.641,375.286 40.571,375.231 40.427 C 375.176 40.284,375.060 40.167,374.972 40.167 C 374.885 40.167,374.861 40.260,374.920 40.375 C 374.978 40.490,374.872 40.409,374.684 40.196 C 374.496 39.982,374.266 39.856,374.171 39.914 C 374.077 39.972,374.000 39.936,374.000 39.833 C 374.000 39.731,373.924 39.694,373.832 39.751 C 373.740 39.808,373.619 39.737,373.564 39.594 C 373.509 39.451,373.322 39.333,373.149 39.333 C 372.975 39.333,372.833 39.249,372.833 39.146 C 372.833 39.017,372.756 39.023,372.583 39.167 C 372.379 39.337,372.333 39.325,372.333 39.104 C 372.333 38.955,372.221 38.833,372.083 38.833 C 371.946 38.833,371.833 38.754,371.833 38.657 C 371.833 38.560,371.764 38.523,371.680 38.575 C 371.596 38.627,371.419 38.561,371.286 38.429 C 371.106 38.249,370.997 38.236,370.856 38.377 C 370.715 38.519,370.667 38.495,370.667 38.283 C 370.667 38.127,370.554 38.000,370.417 38.000 C 370.279 38.000,370.167 37.932,370.167 37.849 C 370.167 37.766,370.017 37.737,369.833 37.785 C 369.640 37.836,369.500 37.790,369.500 37.676 C 369.500 37.569,369.575 37.527,369.667 37.583 C 369.758 37.640,369.833 37.607,369.833 37.510 C 369.833 37.413,369.764 37.333,369.680 37.333 C 369.596 37.333,369.390 37.289,369.222 37.234 C 368.968 37.152,368.959 37.165,369.167 37.315 C 369.321 37.426,369.341 37.496,369.218 37.497 C 369.109 37.499,368.973 37.424,368.915 37.331 C 368.857 37.237,368.728 37.212,368.627 37.275 C 368.509 37.348,368.481 37.289,368.550 37.111 C 368.617 36.934,368.572 36.833,368.425 36.833 C 368.298 36.833,368.169 36.768,368.139 36.689 C 368.108 36.609,367.896 36.492,367.667 36.428 C 367.349 36.339,367.309 36.353,367.500 36.487 C 367.653 36.594,367.673 36.663,367.552 36.664 C 367.442 36.666,367.306 36.590,367.248 36.497 C 367.191 36.404,367.061 36.379,366.960 36.441 C 366.842 36.514,366.815 36.456,366.883 36.277 C 366.951 36.101,366.906 36.000,366.759 36.000 C 366.632 36.000,366.503 35.935,366.472 35.855 C 366.442 35.776,366.229 35.658,366.000 35.594 C 365.682 35.506,365.643 35.520,365.833 35.653 C 365.987 35.761,366.007 35.829,365.885 35.831 C 365.776 35.832,365.639 35.757,365.582 35.664 C 365.524 35.571,365.394 35.546,365.293 35.608 C 365.175 35.681,365.148 35.622,365.216 35.444 C 365.284 35.268,365.239 35.167,365.092 35.167 C 364.965 35.167,364.827 35.073,364.786 34.958 C 364.725 34.792,364.639 34.792,364.355 34.960 C 364.057 35.136,364.000 35.129,364.000 34.918 C 364.000 34.780,363.887 34.667,363.750 34.667 C 363.613 34.667,363.500 34.587,363.500 34.490 C 363.500 34.393,363.431 34.356,363.347 34.408 C 363.262 34.460,363.085 34.395,362.953 34.262 C 362.773 34.083,362.664 34.069,362.523 34.211 C 362.381 34.352,362.333 34.328,362.333 34.117 C 362.333 33.961,362.221 33.833,362.083 33.833 C 361.946 33.833,361.833 33.754,361.833 33.657 C 361.833 33.560,361.764 33.523,361.680 33.575 C 361.596 33.627,361.409 33.552,361.265 33.408 C 361.121 33.263,360.927 33.192,360.835 33.249 C 360.742 33.306,360.667 33.269,360.667 33.167 C 360.667 33.064,360.591 33.027,360.499 33.084 C 360.407 33.141,360.286 33.071,360.231 32.927 C 360.176 32.784,360.060 32.667,359.972 32.667 C 359.885 32.667,359.861 32.760,359.920 32.875 C 359.978 32.990,359.872 32.909,359.684 32.696 C 359.496 32.482,359.266 32.356,359.171 32.414 C 359.077 32.472,359.000 32.436,359.000 32.333 C 359.000 32.231,358.924 32.194,358.832 32.251 C 358.740 32.308,358.619 32.237,358.564 32.094 C 358.509 31.951,358.393 31.833,358.306 31.833 C 358.218 31.833,358.198 31.916,358.260 32.017 C 358.342 32.150,358.280 32.150,358.035 32.019 C 357.848 31.919,357.652 31.743,357.598 31.627 C 357.520 31.461,357.480 31.460,357.403 31.624 C 357.326 31.788,357.259 31.788,357.076 31.624 C 356.525 31.130,356.337 31.000,356.174 31.000 C 356.078 31.000,356.000 30.916,356.000 30.814 C 356.000 30.710,355.853 30.666,355.667 30.715 C 355.483 30.763,355.333 30.750,355.333 30.687 C 355.333 30.623,355.166 30.558,354.961 30.543 C 354.756 30.527,354.562 30.436,354.530 30.341 C 354.498 30.245,354.324 30.167,354.143 30.167 C 353.934 30.167,353.858 30.095,353.934 29.972 C 354.015 29.841,353.964 29.812,353.777 29.883 C 353.625 29.942,353.500 29.917,353.500 29.828 C 353.500 29.739,353.317 29.667,353.093 29.667 C 352.860 29.667,352.574 29.507,352.425 29.294 C 352.200 28.974,352.117 28.951,351.832 29.129 C 351.556 29.301,351.500 29.294,351.500 29.085 C 351.500 28.946,351.387 28.833,351.250 28.833 C 351.113 28.833,351.000 28.758,351.000 28.667 C 351.000 28.575,350.921 28.500,350.823 28.500 C 350.726 28.500,350.695 28.594,350.753 28.708 C 350.811 28.823,350.710 28.748,350.528 28.542 C 350.177 28.145,349.833 28.047,349.833 28.345 C 349.833 28.453,349.737 28.437,349.589 28.304 C 349.032 27.802,348.839 27.667,348.674 27.667 C 348.578 27.667,348.500 27.583,348.500 27.481 C 348.500 27.372,348.327 27.328,348.083 27.374 C 347.854 27.418,347.667 27.389,347.667 27.310 C 347.667 27.231,347.483 27.167,347.259 27.167 C 347.027 27.167,346.740 27.007,346.591 26.794 C 346.367 26.474,346.284 26.451,345.999 26.629 C 345.720 26.803,345.667 26.794,345.667 26.575 C 345.667 26.431,345.591 26.360,345.499 26.417 C 345.407 26.474,345.286 26.404,345.231 26.261 C 345.176 26.117,345.060 26.000,344.972 26.000 C 344.885 26.000,344.865 26.082,344.927 26.183 C 345.007 26.312,344.935 26.310,344.687 26.177 C 344.492 26.073,344.333 25.907,344.333 25.808 C 344.333 25.709,344.183 25.667,344.000 25.715 C 343.817 25.763,343.667 25.751,343.667 25.687 C 343.667 25.624,343.460 25.557,343.208 25.538 C 342.956 25.518,342.614 25.337,342.447 25.135 C 342.191 24.826,342.093 24.799,341.822 24.969 C 341.555 25.135,341.500 25.125,341.500 24.908 C 341.500 24.765,341.424 24.694,341.332 24.751 C 341.240 24.808,341.119 24.737,341.064 24.594 C 341.009 24.451,340.893 24.333,340.806 24.333 C 340.718 24.333,340.698 24.416,340.760 24.517 C 340.840 24.645,340.769 24.644,340.520 24.511 C 340.326 24.407,340.167 24.241,340.167 24.143 C 340.167 24.035,340.001 24.006,339.750 24.068 C 339.510 24.129,339.333 24.101,339.333 24.003 C 339.333 23.910,339.141 23.833,338.907 23.833 C 338.610 23.833,338.518 23.770,338.605 23.625 C 338.699 23.469,338.664 23.471,338.464 23.633 C 338.238 23.816,338.158 23.793,337.945 23.490 C 337.807 23.292,337.612 23.181,337.513 23.242 C 337.414 23.303,337.332 23.255,337.331 23.135 C 337.329 22.963,337.300 22.961,337.196 23.125 C 337.095 23.283,336.977 23.253,336.705 23.000 C 336.342 22.662,336.076 22.552,336.233 22.806 C 336.280 22.882,336.209 22.944,336.076 22.944 C 335.943 22.944,335.867 22.911,335.909 22.869 C 336.087 22.690,335.477 22.318,335.167 22.417 C 334.968 22.480,334.833 22.447,334.833 22.335 C 334.833 22.231,334.758 22.194,334.665 22.251 C 334.573 22.308,334.453 22.237,334.398 22.094 C 334.343 21.951,334.226 21.833,334.139 21.833 C 334.052 21.833,334.031 21.916,334.094 22.017 C 334.173 22.145,334.102 22.144,333.853 22.011 C 333.659 21.907,333.500 21.741,333.500 21.641 C 333.500 21.539,333.320 21.496,333.083 21.541 C 332.854 21.585,332.667 21.548,332.667 21.459 C 332.667 21.370,332.556 21.340,332.421 21.392 C 332.287 21.443,332.067 21.377,331.933 21.243 C 331.650 20.960,331.430 20.919,331.591 21.179 C 331.652 21.277,331.544 21.259,331.351 21.139 C 331.158 21.018,331.000 20.855,331.000 20.775 C 331.000 20.696,330.813 20.678,330.583 20.735 C 330.322 20.801,330.167 20.769,330.167 20.650 C 330.167 20.538,329.997 20.494,329.750 20.541 C 329.471 20.594,329.333 20.546,329.333 20.394 C 329.333 20.269,329.254 20.167,329.157 20.167 C 329.060 20.167,329.030 20.247,329.091 20.346 C 329.152 20.444,329.044 20.426,328.851 20.306 C 328.658 20.185,328.500 20.021,328.500 19.940 C 328.500 19.860,328.312 19.830,328.083 19.874 C 327.854 19.918,327.667 19.881,327.667 19.792 C 327.667 19.704,327.556 19.673,327.421 19.725 C 327.287 19.777,327.067 19.710,326.933 19.576 C 326.648 19.291,326.431 19.253,326.594 19.517 C 326.673 19.645,326.602 19.644,326.353 19.511 C 326.159 19.407,326.000 19.240,326.000 19.140 C 326.000 19.028,325.812 18.996,325.506 19.057 C 325.235 19.111,324.972 19.090,324.922 19.009 C 324.873 18.929,324.645 18.883,324.416 18.909 C 324.140 18.939,324.000 18.871,324.000 18.709 C 324.000 18.562,323.902 18.502,323.755 18.558 C 323.620 18.610,323.393 18.536,323.250 18.393 C 323.085 18.228,322.844 18.170,322.589 18.234 C 322.368 18.289,322.141 18.259,322.084 18.167 C 322.027 18.075,321.755 18.000,321.480 18.000 C 321.205 18.000,321.021 17.934,321.070 17.854 C 321.120 17.774,320.966 17.708,320.728 17.708 C 320.490 17.708,320.238 17.616,320.169 17.503 C 320.092 17.380,319.900 17.343,319.687 17.410 C 319.484 17.475,319.333 17.450,319.333 17.352 C 319.333 17.258,319.071 17.201,318.750 17.227 C 318.391 17.255,318.167 17.198,318.167 17.078 C 318.167 16.971,317.930 16.877,317.641 16.869 C 317.352 16.861,317.060 16.764,316.992 16.653 C 316.923 16.543,316.710 16.493,316.517 16.544 C 316.325 16.594,316.125 16.567,316.074 16.484 C 316.022 16.401,315.722 16.333,315.407 16.333 C 315.091 16.333,314.833 16.270,314.833 16.192 C 314.833 16.114,314.597 16.044,314.308 16.036 C 314.019 16.028,313.727 15.931,313.659 15.821 C 313.583 15.699,313.368 15.664,313.101 15.731 C 312.862 15.791,312.667 15.775,312.667 15.695 C 312.667 15.616,312.430 15.544,312.141 15.536 C 311.852 15.528,311.569 15.446,311.513 15.354 C 311.456 15.262,311.160 15.194,310.856 15.203 C 310.551 15.211,310.242 15.122,310.169 15.004 C 310.079 14.857,309.850 14.824,309.448 14.900 C 309.124 14.961,308.821 14.949,308.775 14.873 C 308.728 14.798,308.406 14.717,308.058 14.694 C 307.711 14.670,307.387 14.591,307.338 14.517 C 307.290 14.442,306.995 14.376,306.683 14.368 C 306.371 14.360,306.060 14.264,305.992 14.153 C 305.909 14.019,305.644 13.988,305.194 14.060 C 304.823 14.119,304.481 14.105,304.434 14.028 C 304.386 13.951,303.988 13.874,303.549 13.858 C 303.109 13.841,302.725 13.754,302.694 13.664 C 302.664 13.574,302.270 13.500,301.819 13.500 C 301.319 13.500,301.000 13.426,301.000 13.311 C 301.000 13.182,300.757 13.155,300.237 13.226 C 299.813 13.284,299.331 13.254,299.153 13.159 C 298.940 13.045,298.833 13.044,298.833 13.157 C 298.833 13.269,298.690 13.271,298.406 13.163 C 298.171 13.073,297.646 13.000,297.239 13.000 C 296.833 13.000,296.500 12.925,296.500 12.833 C 296.500 12.735,295.889 12.667,295.000 12.667 C 293.980 12.667,293.500 12.605,293.500 12.475 C 293.500 12.337,293.047 12.311,291.875 12.383 C 290.981 12.438,289.931 12.422,289.542 12.347 C 289.152 12.273,288.833 12.262,288.833 12.324 C 288.833 12.386,288.252 12.370,287.542 12.289 C 286.830 12.207,283.782 12.195,280.750 12.262 C 277.725 12.328,274.481 12.366,273.542 12.346 C 272.418 12.323,271.833 12.371,271.833 12.489 C 271.833 12.602,271.273 12.668,270.292 12.669 C 269.235 12.671,268.829 12.723,269.000 12.833 C 269.174 12.946,268.879 12.996,268.031 12.997 C 267.360 12.999,266.666 13.078,266.489 13.173 C 266.264 13.293,266.167 13.291,266.167 13.167 C 266.167 13.042,266.070 13.040,265.847 13.159 C 265.667 13.256,265.185 13.284,264.747 13.224 C 264.222 13.152,263.927 13.181,263.845 13.314 C 263.776 13.427,263.315 13.517,262.778 13.523 C 262.259 13.529,261.833 13.602,261.833 13.684 C 261.833 13.766,261.566 13.833,261.239 13.833 C 260.912 13.833,260.491 13.916,260.302 14.017 C 260.053 14.150,259.991 14.150,260.073 14.017 C 260.135 13.916,260.111 13.833,260.020 13.833 C 259.928 13.833,259.807 13.908,259.750 14.000 C 259.690 14.098,259.365 14.122,258.973 14.060 C 258.518 13.987,258.258 14.018,258.173 14.157 C 258.102 14.271,257.704 14.361,257.273 14.361 C 256.848 14.361,256.500 14.430,256.500 14.514 C 256.500 14.598,256.308 14.667,256.072 14.667 C 255.837 14.667,255.491 14.749,255.302 14.850 C 255.053 14.983,254.991 14.983,255.073 14.850 C 255.135 14.749,255.107 14.667,255.010 14.667 C 254.913 14.667,254.833 14.737,254.833 14.823 C 254.833 14.909,254.565 14.935,254.233 14.882 C 253.841 14.818,253.589 14.856,253.505 14.992 C 253.434 15.106,253.093 15.200,252.747 15.200 C 252.318 15.200,252.192 15.247,252.350 15.347 C 252.513 15.450,252.416 15.496,252.031 15.497 C 251.727 15.499,251.324 15.582,251.136 15.683 C 250.887 15.817,250.824 15.817,250.906 15.683 C 250.969 15.582,250.940 15.500,250.843 15.500 C 250.746 15.500,250.667 15.576,250.667 15.670 C 250.667 15.770,250.487 15.795,250.232 15.731 C 249.960 15.662,249.750 15.699,249.670 15.827 C 249.600 15.941,249.252 16.033,248.897 16.033 C 248.541 16.033,248.211 16.096,248.164 16.172 C 248.116 16.249,247.875 16.339,247.628 16.372 C 247.381 16.405,247.130 16.481,247.070 16.541 C 247.010 16.601,246.745 16.607,246.480 16.554 C 246.179 16.494,246.000 16.528,246.000 16.646 C 246.000 16.749,245.865 16.833,245.700 16.833 C 245.535 16.833,245.299 16.927,245.176 17.042 C 244.996 17.208,244.975 17.208,245.069 17.042 C 245.133 16.927,245.113 16.833,245.024 16.833 C 244.934 16.833,244.836 16.904,244.806 16.990 C 244.775 17.076,244.547 17.173,244.298 17.206 C 244.049 17.238,243.797 17.314,243.737 17.374 C 243.677 17.435,243.411 17.441,243.147 17.388 C 242.845 17.327,242.667 17.361,242.667 17.479 C 242.667 17.582,242.410 17.667,242.097 17.667 C 241.784 17.667,241.500 17.749,241.467 17.849 C 241.434 17.949,241.203 18.043,240.955 18.057 C 240.707 18.071,240.465 18.186,240.417 18.310 C 240.343 18.502,240.286 18.502,240.054 18.310 C 239.839 18.133,239.764 18.129,239.709 18.292 C 239.670 18.406,239.389 18.500,239.083 18.500 C 238.778 18.500,238.503 18.573,238.472 18.662 C 238.442 18.751,238.229 18.858,238.000 18.899 C 237.771 18.941,237.546 18.989,237.500 19.006 C 237.454 19.023,237.248 19.023,237.042 19.007 C 236.835 18.990,236.552 19.091,236.412 19.231 C 236.272 19.371,236.047 19.443,235.912 19.392 C 235.766 19.336,235.667 19.395,235.667 19.539 C 235.667 19.702,235.505 19.770,235.167 19.750 C 234.892 19.734,234.667 19.776,234.667 19.845 C 234.667 19.913,234.519 19.930,234.339 19.883 C 234.159 19.836,233.895 19.915,233.751 20.058 C 233.607 20.203,233.369 20.273,233.218 20.215 C 233.036 20.145,232.985 20.175,233.066 20.305 C 233.148 20.437,233.026 20.500,232.686 20.500 C 232.411 20.500,232.138 20.578,232.079 20.673 C 232.020 20.769,231.828 20.801,231.653 20.746 C 231.474 20.689,231.333 20.723,231.333 20.822 C 231.333 20.920,231.216 21.000,231.073 21.000 C 230.910 21.000,230.860 21.077,230.939 21.208 C 231.012 21.330,230.933 21.312,230.750 21.167 C 230.567 21.021,230.488 21.004,230.561 21.125 C 230.650 21.273,230.542 21.333,230.186 21.333 C 229.911 21.333,229.638 21.411,229.579 21.507 C 229.520 21.602,229.328 21.635,229.153 21.579 C 228.974 21.522,228.833 21.556,228.833 21.655 C 228.833 21.753,228.716 21.833,228.573 21.833 C 228.410 21.833,228.360 21.911,228.439 22.042 C 228.512 22.163,228.433 22.146,228.250 22.000 C 228.067 21.854,227.988 21.837,228.061 21.958 C 228.150 22.107,228.042 22.167,227.686 22.167 C 227.411 22.167,227.138 22.245,227.079 22.340 C 227.020 22.436,226.828 22.468,226.653 22.412 C 226.474 22.356,226.333 22.389,226.333 22.489 C 226.333 22.587,226.216 22.667,226.073 22.667 C 225.910 22.667,225.860 22.744,225.939 22.875 C 226.012 22.996,225.933 22.979,225.750 22.833 C 225.567 22.688,225.488 22.670,225.561 22.792 C 225.673 22.977,225.274 23.096,224.792 23.020 C 224.723 23.009,224.667 23.076,224.667 23.170 C 224.667 23.265,224.494 23.296,224.273 23.241 C 224.003 23.173,223.847 23.224,223.779 23.401 C 223.721 23.552,223.572 23.620,223.423 23.563 C 223.264 23.502,223.167 23.557,223.167 23.709 C 223.167 23.880,223.041 23.930,222.750 23.874 C 222.503 23.827,222.333 23.872,222.333 23.984 C 222.333 24.102,222.178 24.134,221.917 24.068 C 221.660 24.004,221.500 24.035,221.500 24.149 C 221.500 24.250,221.321 24.333,221.101 24.333 C 220.882 24.333,220.655 24.457,220.597 24.607 C 220.539 24.758,220.450 24.839,220.399 24.788 C 220.348 24.736,220.156 24.844,219.972 25.028 C 219.789 25.211,219.591 25.313,219.533 25.255 C 219.474 25.196,219.537 25.079,219.671 24.993 C 219.860 24.874,219.865 24.838,219.693 24.836 C 219.571 24.834,219.343 24.990,219.188 25.182 C 219.032 25.374,218.702 25.543,218.453 25.557 C 218.204 25.572,218.000 25.641,218.000 25.712 C 218.000 25.782,217.823 25.795,217.606 25.741 C 217.330 25.672,217.180 25.724,217.107 25.915 C 217.049 26.065,216.928 26.142,216.837 26.085 C 216.746 26.029,216.506 26.137,216.304 26.325 C 216.102 26.513,215.858 26.666,215.760 26.664 C 215.663 26.663,215.696 26.583,215.833 26.487 C 216.024 26.353,215.984 26.339,215.667 26.428 C 215.438 26.492,215.213 26.591,215.167 26.647 C 214.965 26.896,214.446 27.234,214.561 27.042 C 214.630 26.927,214.607 26.833,214.510 26.833 C 214.413 26.833,214.333 26.908,214.333 27.000 C 214.333 27.092,214.221 27.167,214.083 27.167 C 213.946 27.167,213.833 27.247,213.833 27.345 C 213.833 27.448,213.691 27.477,213.493 27.414 C 213.248 27.337,213.061 27.422,212.826 27.722 C 212.646 27.950,212.368 28.116,212.208 28.090 C 212.048 28.065,211.778 28.189,211.608 28.366 C 211.439 28.544,211.253 28.642,211.196 28.585 C 211.140 28.528,211.203 28.412,211.338 28.327 C 211.526 28.208,211.531 28.171,211.360 28.169 C 211.237 28.168,211.012 28.317,210.860 28.501 C 210.708 28.685,210.377 28.852,210.125 28.871 C 209.873 28.890,209.667 28.958,209.667 29.021 C 209.667 29.084,209.517 29.096,209.333 29.048 C 209.147 29.000,209.000 29.043,209.000 29.147 C 209.000 29.250,208.887 29.333,208.750 29.333 C 208.612 29.333,208.500 29.396,208.500 29.472 C 208.500 29.548,208.294 29.717,208.042 29.847 C 207.790 29.976,207.520 30.158,207.443 30.250 C 207.361 30.347,207.341 30.295,207.396 30.125 C 207.512 29.764,207.240 29.735,207.102 30.094 C 207.047 30.237,206.922 30.305,206.823 30.244 C 206.725 30.183,206.539 30.272,206.411 30.442 C 206.282 30.611,206.175 30.694,206.172 30.625 C 206.169 30.556,206.010 30.656,205.819 30.847 C 205.628 31.038,205.424 31.147,205.366 31.088 C 205.307 31.030,205.370 30.912,205.505 30.827 C 205.710 30.697,205.703 30.671,205.458 30.669 C 205.277 30.668,205.167 30.793,205.167 31.000 C 205.167 31.270,205.056 31.333,204.583 31.333 C 204.262 31.333,204.000 31.406,204.000 31.495 C 204.000 31.584,203.887 31.613,203.750 31.560 C 203.612 31.508,203.500 31.529,203.500 31.609 C 203.500 31.688,203.342 31.852,203.149 31.972 C 202.956 32.093,202.848 32.111,202.909 32.012 C 202.970 31.914,202.940 31.833,202.843 31.833 C 202.746 31.833,202.667 31.954,202.667 32.101 C 202.667 32.271,202.575 32.334,202.417 32.273 C 202.279 32.220,202.167 32.243,202.167 32.323 C 202.167 32.403,202.017 32.430,201.833 32.382 C 201.647 32.333,201.500 32.377,201.500 32.481 C 201.500 32.583,201.387 32.667,201.250 32.667 C 201.112 32.667,201.000 32.742,201.000 32.833 C 201.000 32.925,200.887 33.000,200.750 33.000 C 200.612 33.000,200.500 33.068,200.500 33.151 C 200.500 33.234,200.350 33.263,200.167 33.215 C 199.983 33.167,199.833 33.193,199.833 33.274 C 199.833 33.354,199.675 33.518,199.483 33.639 C 199.290 33.759,199.182 33.777,199.242 33.679 C 199.303 33.581,199.274 33.500,199.177 33.500 C 199.015 33.500,198.931 33.731,198.980 34.042 C 198.991 34.110,198.856 34.167,198.681 34.167 C 198.505 34.167,198.330 34.223,198.291 34.292 C 198.253 34.360,198.244 34.323,198.272 34.208 C 198.349 33.895,198.175 33.957,197.806 34.375 C 197.624 34.581,197.522 34.656,197.580 34.542 C 197.639 34.427,197.615 34.333,197.528 34.333 C 197.440 34.333,197.324 34.451,197.269 34.594 C 197.214 34.737,197.093 34.808,197.001 34.751 C 196.909 34.694,196.833 34.731,196.833 34.833 C 196.833 34.936,196.759 34.974,196.669 34.918 C 196.578 34.862,196.302 35.003,196.055 35.232 C 195.808 35.461,195.550 35.614,195.481 35.572 C 195.413 35.529,195.309 35.571,195.252 35.664 C 195.194 35.757,195.058 35.832,194.948 35.831 C 194.827 35.829,194.847 35.761,195.000 35.653 C 195.190 35.520,195.150 35.507,194.834 35.597 C 194.605 35.662,194.326 35.836,194.214 35.983 C 194.102 36.130,194.008 36.188,194.005 36.113 C 194.002 36.038,193.878 36.098,193.729 36.248 C 193.579 36.397,193.354 36.480,193.229 36.431 C 193.103 36.383,193.000 36.409,193.000 36.490 C 193.000 36.570,192.850 36.596,192.667 36.548 C 192.483 36.500,192.333 36.527,192.333 36.607 C 192.333 36.687,192.175 36.852,191.983 36.972 C 191.790 37.093,191.682 37.111,191.742 37.012 C 191.803 36.914,191.782 36.833,191.694 36.833 C 191.607 36.833,191.491 36.951,191.436 37.094 C 191.381 37.237,191.260 37.308,191.168 37.251 C 191.076 37.194,191.000 37.231,191.000 37.333 C 191.000 37.436,190.921 37.471,190.824 37.411 C 190.728 37.352,190.513 37.460,190.347 37.651 C 190.160 37.867,189.844 38.000,189.522 38.000 C 189.235 38.000,189.000 38.076,189.000 38.170 C 189.000 38.268,188.824 38.295,188.583 38.235 C 188.354 38.178,188.167 38.196,188.167 38.275 C 188.167 38.355,188.009 38.518,187.816 38.639 C 187.623 38.759,187.515 38.777,187.576 38.679 C 187.637 38.581,187.615 38.500,187.528 38.500 C 187.440 38.500,187.322 38.623,187.264 38.774 C 187.206 38.924,187.117 39.006,187.066 38.954 C 187.014 38.903,186.822 39.011,186.639 39.194 C 186.456 39.378,186.258 39.480,186.199 39.421 C 186.141 39.363,186.203 39.245,186.338 39.160 C 186.547 39.028,186.543 39.005,186.309 39.003 C 186.159 39.001,185.993 39.111,185.941 39.247 C 185.884 39.396,185.737 39.453,185.573 39.390 C 185.423 39.332,185.251 39.352,185.192 39.434 C 185.022 39.667,183.936 40.238,184.069 40.024 C 184.253 39.725,184.022 39.800,183.628 40.167 C 183.324 40.450,182.773 40.596,182.292 40.520 C 182.223 40.509,182.167 40.573,182.167 40.661 C 182.167 40.750,182.056 40.780,181.921 40.729 C 181.786 40.677,181.559 40.751,181.416 40.893 C 181.274 41.036,181.047 41.110,180.912 41.058 C 180.765 41.002,180.667 41.062,180.667 41.209 C 180.667 41.380,180.541 41.430,180.250 41.374 C 179.995 41.325,179.833 41.371,179.833 41.492 C 179.833 41.613,179.705 41.648,179.499 41.583 C 179.299 41.519,179.064 41.579,178.911 41.732 C 178.771 41.871,178.547 41.943,178.412 41.892 C 178.277 41.840,178.167 41.881,178.167 41.982 C 178.167 42.084,177.979 42.167,177.750 42.167 C 177.521 42.167,177.333 42.247,177.333 42.345 C 177.333 42.447,177.191 42.477,176.999 42.417 C 176.799 42.353,176.564 42.412,176.411 42.565 C 176.271 42.705,176.047 42.777,175.912 42.725 C 175.766 42.669,175.667 42.728,175.667 42.872 C 175.667 43.035,175.505 43.103,175.167 43.083 C 174.892 43.067,174.667 43.122,174.667 43.205 C 174.667 43.288,174.516 43.308,174.333 43.250 C 174.132 43.186,173.898 43.245,173.745 43.398 C 173.605 43.538,173.368 43.605,173.218 43.548 C 173.036 43.478,172.985 43.508,173.066 43.638 C 173.148 43.771,173.026 43.833,172.686 43.833 C 172.411 43.833,172.142 43.906,172.087 43.995 C 172.032 44.083,171.765 44.111,171.494 44.057 C 171.222 44.003,171.000 44.025,171.000 44.106 C 171.000 44.187,170.842 44.352,170.649 44.472 C 170.456 44.593,170.348 44.611,170.409 44.512 C 170.470 44.414,170.440 44.333,170.343 44.333 C 170.246 44.333,170.167 44.392,170.167 44.463 C 170.167 44.535,169.941 44.679,169.666 44.783 C 169.390 44.887,169.207 44.903,169.259 44.819 C 169.311 44.735,169.274 44.667,169.177 44.667 C 169.079 44.667,168.994 44.798,168.987 44.958 C 168.979 45.133,168.940 45.166,168.890 45.042 C 168.778 44.764,168.365 44.777,168.074 45.068 C 167.945 45.198,167.669 45.266,167.461 45.221 C 167.158 45.154,167.133 45.173,167.333 45.316 C 167.537 45.462,167.498 45.499,167.125 45.518 C 166.462 45.552,166.374 45.570,166.244 45.700 C 166.180 45.765,165.911 45.774,165.647 45.721 C 165.345 45.661,165.167 45.695,165.167 45.813 C 165.167 45.916,164.904 46.000,164.583 46.000 C 164.262 46.000,164.000 46.073,164.000 46.161 C 164.000 46.250,164.131 46.276,164.292 46.218 C 164.452 46.161,164.524 46.178,164.452 46.257 C 164.380 46.336,164.067 46.384,163.757 46.363 C 163.446 46.342,163.144 46.402,163.086 46.496 C 163.027 46.591,162.797 46.622,162.573 46.566 C 162.325 46.504,162.167 46.536,162.167 46.649 C 162.167 46.750,162.032 46.833,161.867 46.833 C 161.702 46.833,161.466 46.927,161.342 47.042 C 161.163 47.208,161.141 47.208,161.235 47.042 C 161.300 46.927,161.280 46.833,161.190 46.833 C 161.101 46.833,161.001 46.913,160.969 47.010 C 160.936 47.107,160.668 47.194,160.372 47.202 C 160.076 47.211,159.833 47.282,159.833 47.362 C 159.833 47.441,159.638 47.457,159.399 47.397 C 159.132 47.330,158.917 47.365,158.841 47.488 C 158.773 47.598,158.485 47.694,158.200 47.702 C 157.916 47.710,157.650 47.802,157.610 47.907 C 157.570 48.011,157.266 48.088,156.935 48.077 C 156.604 48.066,156.333 48.122,156.333 48.203 C 156.333 48.283,156.071 48.299,155.750 48.239 C 155.368 48.167,155.167 48.193,155.167 48.315 C 155.167 48.417,155.032 48.500,154.867 48.500 C 154.702 48.500,154.466 48.594,154.342 48.708 C 154.163 48.875,154.141 48.875,154.235 48.708 C 154.300 48.594,154.274 48.500,154.177 48.500 C 154.079 48.500,154.000 48.575,154.000 48.667 C 154.000 48.758,153.817 48.833,153.593 48.833 C 153.369 48.833,153.135 48.916,153.072 49.018 C 152.993 49.146,152.915 49.134,152.815 48.976 C 152.698 48.792,152.671 48.791,152.669 48.972 C 152.667 49.133,152.525 49.162,152.146 49.079 C 151.814 49.006,151.581 49.035,151.505 49.159 C 151.438 49.266,151.129 49.360,150.817 49.368 C 150.505 49.376,150.210 49.442,150.162 49.516 C 150.114 49.589,149.795 49.678,149.454 49.713 C 149.113 49.748,148.790 49.821,148.736 49.876 C 148.681 49.930,148.374 49.931,148.052 49.879 C 147.663 49.816,147.422 49.857,147.333 50.001 C 147.259 50.121,146.949 50.211,146.644 50.203 C 146.340 50.194,146.051 50.250,146.004 50.327 C 145.956 50.404,145.654 50.490,145.333 50.519 C 145.012 50.548,144.581 50.676,144.375 50.805 C 144.128 50.959,144.000 50.975,144.000 50.853 C 144.000 50.609,143.047 50.610,142.966 50.853 C 142.931 50.956,142.588 51.036,142.202 51.031 C 141.816 51.025,141.500 51.091,141.500 51.177 C 141.500 51.263,141.308 51.333,141.072 51.333 C 140.837 51.333,140.491 51.416,140.302 51.517 C 140.053 51.650,139.991 51.650,140.073 51.517 C 140.135 51.416,140.107 51.333,140.010 51.333 C 139.913 51.333,139.833 51.413,139.833 51.510 C 139.833 51.626,139.568 51.647,139.065 51.572 C 138.524 51.491,138.258 51.518,138.168 51.665 C 138.095 51.783,137.724 51.869,137.315 51.863 C 136.917 51.858,136.552 51.917,136.504 51.994 C 136.397 52.167,134.863 52.362,133.792 52.340 C 133.348 52.330,133.000 52.398,133.000 52.495 C 133.000 52.593,132.580 52.667,132.014 52.667 C 131.472 52.667,131.003 52.733,130.972 52.815 C 130.908 52.987,128.953 53.206,127.764 53.174 C 127.314 53.162,126.896 53.231,126.837 53.328 C 126.777 53.424,126.208 53.511,125.573 53.520 C 124.937 53.529,124.379 53.594,124.333 53.665 C 124.218 53.842,121.679 54.055,120.183 54.013 C 119.431 53.992,118.906 54.049,118.837 54.161 C 118.768 54.272,118.074 54.350,117.070 54.360 C 116.024 54.371,115.570 54.424,115.833 54.505 C 116.100 54.587,115.590 54.651,114.417 54.681 C 113.408 54.708,112.321 54.756,112.000 54.790 C 111.679 54.823,110.010 54.844,108.292 54.835 C 106.231 54.825,105.167 54.879,105.167 54.993 C 105.167 55.110,103.413 55.167,99.833 55.167 C 95.915 55.167,94.500 55.116,94.500 54.974 C 94.500 54.834,93.878 54.809,92.174 54.882 C 90.895 54.936,89.620 54.916,89.341 54.835 C 89.062 54.755,88.833 54.752,88.833 54.827 C 88.833 54.903,88.552 54.900,88.208 54.820 C 87.865 54.740,87.152 54.673,86.625 54.671 C 86.098 54.668,85.667 54.596,85.667 54.510 C 85.667 54.424,85.054 54.352,84.306 54.351 C 83.520 54.349,82.899 54.272,82.835 54.169 C 82.774 54.070,82.317 54.000,81.820 54.012 C 81.323 54.025,80.729 53.999,80.500 53.955 C 80.271 53.912,79.671 53.865,79.167 53.852 C 78.586 53.837,78.333 53.776,78.475 53.686 C 78.619 53.594,78.415 53.537,77.905 53.527 C 77.468 53.518,77.056 53.424,76.990 53.317 C 76.912 53.191,76.658 53.162,76.265 53.236 C 75.933 53.298,75.571 53.294,75.462 53.226 C 75.352 53.159,74.997 53.076,74.673 53.043 C 74.349 53.011,74.058 52.912,74.028 52.825 C 73.997 52.738,73.678 52.667,73.319 52.667 C 72.960 52.667,72.667 52.590,72.667 52.496 C 72.667 52.402,72.385 52.330,72.042 52.336 C 71.177 52.351,70.167 52.160,70.167 51.982 C 70.167 51.900,70.087 51.833,69.990 51.833 C 69.893 51.833,69.867 51.927,69.931 52.042 C 70.025 52.208,70.004 52.208,69.824 52.042 C 69.701 51.927,69.465 51.833,69.300 51.833 C 69.135 51.833,69.000 51.749,69.000 51.646 C 69.000 51.527,68.819 51.494,68.506 51.557 C 68.235 51.611,67.968 51.583,67.913 51.495 C 67.858 51.406,67.589 51.333,67.314 51.333 C 67.039 51.333,66.854 51.268,66.904 51.188 C 66.953 51.107,66.799 51.042,66.561 51.042 C 66.323 51.042,66.072 50.949,66.002 50.836 C 65.926 50.713,65.733 50.676,65.521 50.743 C 65.311 50.810,65.167 50.783,65.167 50.678 C 65.167 50.580,64.979 50.500,64.750 50.500 C 64.521 50.500,64.333 50.425,64.333 50.333 C 64.333 50.242,64.254 50.167,64.157 50.167 C 64.060 50.167,64.031 50.249,64.094 50.350 C 64.173 50.479,64.102 50.477,63.853 50.344 C 63.659 50.240,63.500 50.074,63.500 49.975 C 63.500 49.872,63.320 49.829,63.083 49.874 C 62.854 49.918,62.667 49.881,62.667 49.792 C 62.667 49.704,62.556 49.673,62.421 49.725 C 62.287 49.777,62.067 49.710,61.933 49.576 C 61.650 49.293,61.430 49.252,61.591 49.512 C 61.652 49.611,61.544 49.593,61.351 49.472 C 61.158 49.352,61.000 49.187,61.000 49.107 C 61.000 49.027,60.850 49.000,60.667 49.048 C 60.483 49.096,60.333 49.084,60.333 49.021 C 60.333 48.958,60.127 48.890,59.875 48.871 C 59.623 48.852,59.280 48.671,59.113 48.468 C 58.858 48.159,58.759 48.133,58.488 48.302 C 58.222 48.468,58.167 48.458,58.167 48.242 C 58.167 48.098,58.091 48.027,57.999 48.084 C 57.907 48.141,57.786 48.071,57.731 47.927 C 57.676 47.784,57.560 47.667,57.472 47.667 C 57.385 47.667,57.370 47.760,57.439 47.875 C 57.576 48.103,57.001 47.696,56.792 47.417 C 56.712 47.311,56.615 47.331,56.523 47.472 C 56.408 47.652,56.360 47.643,56.278 47.431 C 56.223 47.285,56.062 47.167,55.922 47.167 C 55.782 47.167,55.667 47.092,55.667 47.000 C 55.667 46.908,55.554 46.833,55.417 46.833 C 55.279 46.833,55.167 46.750,55.167 46.647 C 55.167 46.543,55.020 46.500,54.833 46.548 C 54.650 46.596,54.500 46.563,54.500 46.475 C 54.500 46.386,54.424 46.360,54.332 46.417 C 54.240 46.474,54.119 46.404,54.064 46.261 C 54.009 46.117,53.893 46.000,53.806 46.000 C 53.718 46.000,53.686 46.063,53.733 46.139 C 53.780 46.215,53.713 46.278,53.583 46.278 C 53.454 46.278,53.387 46.215,53.434 46.139 C 53.481 46.063,53.398 46.000,53.250 46.000 C 53.087 46.000,53.028 45.923,53.101 45.805 C 53.179 45.678,53.134 45.644,52.970 45.707 C 52.827 45.761,52.620 45.666,52.489 45.485 C 52.245 45.146,51.899 45.034,52.099 45.359 C 52.173 45.478,52.145 45.506,52.026 45.433 C 51.920 45.367,51.833 45.197,51.833 45.054 C 51.833 44.877,51.728 44.822,51.500 44.882 C 51.317 44.930,51.167 44.896,51.167 44.808 C 51.167 44.719,51.091 44.694,50.999 44.751 C 50.907 44.808,50.786 44.737,50.731 44.594 C 50.676 44.451,50.527 44.333,50.399 44.333 C 50.271 44.333,50.167 44.255,50.167 44.159 C 50.167 44.064,50.073 43.998,49.958 44.012 C 49.520 44.069,49.333 43.991,49.333 43.750 C 49.333 43.612,49.254 43.500,49.157 43.500 C 49.060 43.500,49.028 43.594,49.086 43.708 C 49.144 43.823,49.038 43.742,48.851 43.529 C 48.663 43.316,48.432 43.189,48.338 43.247 C 48.244 43.305,48.167 43.274,48.167 43.177 C 48.167 43.079,48.054 43.000,47.917 43.000 C 47.779 43.000,47.667 42.921,47.667 42.823 C 47.667 42.726,47.592 42.693,47.500 42.750 C 47.408 42.807,47.333 42.744,47.333 42.611 C 47.333 42.478,47.146 42.322,46.917 42.265 C 46.687 42.207,46.500 42.087,46.500 41.997 C 46.500 41.907,46.387 41.833,46.250 41.833 C 46.112 41.833,46.000 41.758,46.000 41.667 C 46.000 41.575,45.921 41.500,45.823 41.500 C 45.726 41.500,45.695 41.594,45.754 41.708 C 45.812 41.823,45.670 41.710,45.438 41.458 C 45.206 41.206,44.908 41.000,44.776 41.000 C 44.644 41.000,44.492 40.888,44.440 40.750 C 44.387 40.613,44.248 40.501,44.130 40.503 C 43.981 40.504,43.992 40.554,44.167 40.667 C 44.345 40.782,44.355 40.829,44.201 40.831 C 44.082 40.832,43.857 40.606,43.701 40.329 C 43.544 40.051,43.248 39.780,43.042 39.727 C 42.835 39.674,42.667 39.571,42.667 39.498 C 42.667 39.424,42.517 39.404,42.333 39.452 C 42.140 39.502,42.000 39.457,42.000 39.343 C 42.000 39.235,42.075 39.193,42.167 39.250 C 42.258 39.307,42.333 39.274,42.333 39.177 C 42.333 39.079,42.224 39.000,42.091 39.000 C 41.958 39.000,41.670 38.821,41.452 38.603 C 41.003 38.155,40.204 37.822,40.422 38.175 C 40.509 38.315,40.484 38.343,40.348 38.259 C 40.236 38.190,40.186 38.024,40.237 37.891 C 40.289 37.755,40.257 37.694,40.164 37.752 C 40.072 37.808,39.953 37.737,39.898 37.594 C 39.843 37.451,39.693 37.333,39.566 37.333 C 39.438 37.333,39.333 37.253,39.333 37.155 C 39.333 36.925,38.910 36.500,38.680 36.500 C 38.583 36.500,38.288 36.275,38.025 36.000 C 37.762 35.725,37.429 35.500,37.285 35.500 C 37.141 35.500,36.977 35.357,36.922 35.182 C 36.866 35.007,36.707 34.821,36.568 34.767 C 36.398 34.702,36.356 34.738,36.440 34.877 C 36.523 35.015,36.472 35.008,36.284 34.856 C 36.130 34.731,36.046 34.561,36.098 34.477 C 36.149 34.393,36.130 34.336,36.054 34.349 C 35.769 34.399,35.448 34.330,35.539 34.238 C 35.680 34.098,34.199 32.667,33.912 32.667 C 33.777 32.667,33.667 32.590,33.667 32.496 C 33.667 32.402,33.479 32.254,33.250 32.167 C 33.021 32.080,32.833 31.921,32.833 31.814 C 32.833 31.526,31.849 30.637,31.660 30.754 C 31.570 30.810,31.366 30.625,31.207 30.344 C 31.047 30.063,30.789 29.791,30.634 29.741 C 30.478 29.691,30.304 29.503,30.247 29.325 C 30.191 29.146,30.074 29.000,29.989 29.000 C 29.655 29.000,29.575 28.968,29.320 28.738 C 29.175 28.607,29.006 28.537,28.945 28.583 C 28.883 28.629,28.872 28.616,28.918 28.554 C 28.965 28.492,28.834 28.255,28.627 28.027 C 28.419 27.799,28.343 27.666,28.456 27.732 C 28.597 27.813,28.630 27.765,28.560 27.584 C 28.504 27.437,28.244 27.274,27.982 27.221 C 27.720 27.169,27.534 27.079,27.569 27.021 C 27.603 26.964,27.527 26.820,27.399 26.702 C 27.271 26.584,27.164 26.546,27.161 26.618 C 27.158 26.691,27.051 26.563,26.924 26.333 C 26.797 26.104,26.631 25.917,26.555 25.917 C 26.479 25.917,26.425 25.879,26.435 25.833 C 26.455 25.736,25.892 25.186,25.708 25.125 C 25.640 25.102,25.591 25.046,25.601 25.000 C 25.622 24.903,25.058 24.353,24.875 24.292 C 24.806 24.269,24.769 24.194,24.792 24.125 C 24.815 24.056,24.721 24.000,24.583 24.000 C 24.446 24.000,24.333 23.883,24.333 23.740 C 24.333 23.597,24.258 23.527,24.167 23.583 C 24.075 23.640,24.000 23.609,24.000 23.515 C 24.000 23.244,20.326 19.651,20.156 19.756 C 20.072 19.808,20.053 19.722,20.114 19.563 C 20.198 19.345,20.159 19.301,19.954 19.379 C 19.770 19.450,19.711 19.411,19.771 19.257 C 19.822 19.123,19.707 18.982,19.490 18.914 C 19.288 18.849,18.589 18.256,17.936 17.595 C 17.284 16.934,16.619 16.344,16.458 16.285 C 16.298 16.226,16.167 16.093,16.167 15.990 C 16.167 15.738,13.504 13.107,13.377 13.234 C 13.241 13.371,12.667 12.833,12.667 12.569 C 12.667 12.452,12.521 12.309,12.342 12.253 C 12.163 12.196,11.972 12.007,11.917 11.833 C 11.861 11.659,11.674 11.472,11.500 11.417 C 11.326 11.361,11.139 11.174,11.083 11.000 C 11.028 10.826,10.841 10.639,10.667 10.583 C 10.493 10.528,10.306 10.344,10.252 10.174 C 10.198 10.003,10.034 9.818,9.887 9.762 C 9.655 9.673,9.650 9.699,9.845 9.955 C 9.969 10.117,9.843 10.043,9.565 9.789 C 9.288 9.536,8.997 9.386,8.920 9.456 C 8.843 9.526,8.827 9.500,8.885 9.399 C 9.013 9.174,8.276 8.446,8.099 8.623 C 8.029 8.693,7.989 8.675,8.010 8.583 C 8.115 8.117,7.608 7.313,7.150 7.222 C 6.887 7.169,6.700 7.079,6.735 7.021 C 6.770 6.964,6.694 6.820,6.566 6.702 C 6.438 6.584,6.331 6.546,6.327 6.618 C 6.324 6.691,6.218 6.563,6.091 6.333 C 5.964 6.104,5.817 5.935,5.764 5.958 C 5.710 5.981,5.667 5.962,5.667 5.917 C 5.667 5.751,5.079 5.215,4.917 5.232 C 4.825 5.242,4.769 5.156,4.792 5.042 C 4.815 4.927,4.721 4.833,4.583 4.833 C 4.446 4.833,4.333 4.716,4.333 4.573 C 4.333 4.431,4.258 4.360,4.167 4.417 C 4.075 4.473,4.000 4.443,4.000 4.349 C 4.000 4.077,1.664 1.815,1.492 1.921 C 1.407 1.974,1.379 1.908,1.431 1.774 C 1.490 1.618,1.385 1.486,1.137 1.408 C 0.924 1.341,0.630 1.148,0.483 0.979 C 0.336 0.811,0.168 0.721,0.108 0.781 M2.282 2.758 C 2.424 2.900,2.505 3.050,2.463 3.092 C 2.421 3.134,2.251 3.018,2.084 2.834 C 1.731 2.444,1.902 2.378,2.282 2.758 M272.500 12.667 C 272.500 12.758,272.387 12.833,272.250 12.833 C 272.112 12.833,272.000 12.758,272.000 12.667 C 272.000 12.575,272.112 12.500,272.250 12.500 C 272.387 12.500,272.500 12.575,272.500 12.667 M293.200 12.700 C 293.044 12.856,292.956 12.856,292.800 12.700 C 292.644 12.544,292.689 12.500,293.000 12.500 C 293.311 12.500,293.356 12.544,293.200 12.700 M20.615 20.258 C 20.757 20.400,20.839 20.550,20.797 20.592 C 20.755 20.634,20.584 20.518,20.418 20.334 C 20.064 19.944,20.235 19.878,20.615 20.258 M21.448 21.091 C 21.590 21.233,21.672 21.384,21.630 21.426 C 21.588 21.468,21.417 21.352,21.251 21.168 C 20.898 20.777,21.068 20.711,21.448 21.091 M22.282 21.925 C 22.424 22.066,22.505 22.217,22.463 22.259 C 22.421 22.301,22.251 22.185,22.084 22.001 C 21.731 21.611,21.902 21.544,22.282 21.925 M119.583 54.333 C 119.527 54.425,119.372 54.500,119.240 54.500 C 119.108 54.500,119.000 54.425,119.000 54.333 C 119.000 54.242,119.154 54.167,119.343 54.167 C 119.532 54.167,119.640 54.242,119.583 54.333 M94.333 55.167 C 94.333 55.258,94.108 55.333,93.833 55.333 C 93.558 55.333,93.333 55.258,93.333 55.167 C 93.333 55.075,93.558 55.000,93.833 55.000 C 94.108 55.000,94.333 55.075,94.333 55.167 M106.583 55.167 C 106.527 55.258,106.222 55.333,105.907 55.333 C 105.591 55.333,105.333 55.258,105.333 55.167 C 105.333 55.075,105.638 55.000,106.010 55.000 C 106.418 55.000,106.646 55.066,106.583 55.167 " stroke="none" fill="#ff8e0d" fill-rule="evenodd"></path><path id="path1" d="M2.084 2.834 C 2.251 3.018,2.421 3.134,2.463 3.092 C 2.554 3.002,2.078 2.500,1.903 2.500 C 1.836 2.500,1.918 2.650,2.084 2.834 M7.978 8.224 C 8.080 8.347,8.108 8.509,8.040 8.584 C 7.972 8.659,8.000 8.673,8.101 8.615 C 8.304 8.499,9.054 9.207,8.918 9.387 C 8.872 9.449,8.884 9.461,8.947 9.414 C 9.009 9.367,9.290 9.535,9.572 9.786 C 9.853 10.038,9.598 9.739,9.005 9.122 C 8.035 8.114,7.492 7.638,7.978 8.224 M277.211 12.286 C 277.464 12.325,277.839 12.324,278.044 12.284 C 278.249 12.244,278.042 12.213,277.583 12.214 C 277.125 12.216,276.957 12.248,277.211 12.286 M287.167 12.261 C 287.761 12.392,288.833 12.415,288.833 12.296 C 288.833 12.225,288.402 12.175,287.875 12.186 C 287.348 12.197,287.029 12.230,287.167 12.261 M274.125 12.451 C 274.331 12.491,274.669 12.491,274.875 12.451 C 275.081 12.411,274.912 12.379,274.500 12.379 C 274.087 12.379,273.919 12.411,274.125 12.451 M290.292 12.451 C 290.498 12.491,290.835 12.491,291.042 12.451 C 291.248 12.411,291.079 12.379,290.667 12.379 C 290.254 12.379,290.085 12.411,290.292 12.451 M272.000 12.667 C 272.000 12.758,272.112 12.833,272.250 12.833 C 272.387 12.833,272.500 12.758,272.500 12.667 C 272.500 12.575,272.387 12.500,272.250 12.500 C 272.112 12.500,272.000 12.575,272.000 12.667 M292.800 12.700 C 292.956 12.856,293.044 12.856,293.200 12.700 C 293.356 12.544,293.311 12.500,293.000 12.500 C 292.689 12.500,292.644 12.544,292.800 12.700 M20.418 20.334 C 20.584 20.518,20.755 20.634,20.797 20.592 C 20.887 20.502,20.412 20.000,20.236 20.000 C 20.169 20.000,20.251 20.150,20.418 20.334 M21.251 21.168 C 21.417 21.352,21.588 21.468,21.630 21.426 C 21.720 21.335,21.245 20.833,21.069 20.833 C 21.003 20.833,21.085 20.984,21.251 21.168 M22.084 22.001 C 22.251 22.185,22.421 22.301,22.463 22.259 C 22.554 22.169,22.078 21.667,21.903 21.667 C 21.836 21.667,21.918 21.817,22.084 22.001 M219.671 24.993 C 219.537 25.079,219.467 25.189,219.517 25.239 C 219.567 25.289,219.752 25.221,219.929 25.087 C 220.280 24.821,220.067 24.744,219.671 24.993 M28.639 28.054 C 28.839 28.267,28.965 28.492,28.918 28.554 C 28.872 28.616,28.883 28.629,28.945 28.583 C 29.006 28.537,29.212 28.629,29.403 28.787 C 29.594 28.945,29.454 28.758,29.091 28.371 C 28.729 27.984,28.397 27.667,28.354 27.667 C 28.311 27.667,28.439 27.841,28.639 28.054 M207.574 29.903 C 207.396 30.033,207.307 30.196,207.375 30.264 C 207.444 30.333,207.500 30.301,207.500 30.194 C 207.500 30.087,207.608 30.000,207.740 30.000 C 207.872 30.000,208.027 29.925,208.083 29.833 C 208.233 29.590,207.948 29.630,207.574 29.903 M205.505 30.827 C 205.370 30.912,205.300 31.023,205.350 31.073 C 205.400 31.122,205.586 31.054,205.762 30.920 C 206.114 30.654,205.900 30.577,205.505 30.827 M198.455 34.022 C 198.296 34.111,198.168 34.273,198.169 34.383 C 198.171 34.529,198.205 34.532,198.294 34.394 C 198.362 34.290,198.567 34.176,198.750 34.140 C 198.933 34.105,199.007 34.027,198.913 33.968 C 198.819 33.909,198.613 33.933,198.455 34.022 M186.338 39.160 C 186.203 39.245,186.134 39.356,186.184 39.406 C 186.234 39.456,186.419 39.387,186.596 39.254 C 186.947 38.988,186.733 38.910,186.338 39.160 M119.000 54.333 C 119.000 54.425,119.108 54.500,119.240 54.500 C 119.372 54.500,119.527 54.425,119.583 54.333 C 119.640 54.242,119.532 54.167,119.343 54.167 C 119.154 54.167,119.000 54.242,119.000 54.333 M87.833 54.731 C 87.833 54.767,88.058 54.829,88.333 54.869 C 88.608 54.909,88.833 54.880,88.833 54.804 C 88.833 54.729,88.608 54.667,88.333 54.667 C 88.058 54.667,87.833 54.696,87.833 54.731 M90.044 54.953 C 90.297 54.991,90.672 54.990,90.877 54.951 C 91.082 54.911,90.875 54.880,90.417 54.881 C 89.958 54.882,89.791 54.915,90.044 54.953 M109.208 54.953 C 109.460 54.991,109.873 54.991,110.125 54.953 C 110.377 54.915,110.171 54.883,109.667 54.883 C 109.162 54.883,108.956 54.915,109.208 54.953 M93.333 55.167 C 93.333 55.258,93.558 55.333,93.833 55.333 C 94.108 55.333,94.333 55.258,94.333 55.167 C 94.333 55.075,94.108 55.000,93.833 55.000 C 93.558 55.000,93.333 55.075,93.333 55.167 M105.333 55.167 C 105.333 55.258,105.591 55.333,105.907 55.333 C 106.222 55.333,106.527 55.258,106.583 55.167 C 106.646 55.066,106.418 55.000,106.010 55.000 C 105.638 55.000,105.333 55.075,105.333 55.167 " stroke="none" fill="#080404" fill-rule="evenodd"></path><path id="path2" d="M2.084 2.834 C 2.251 3.018,2.421 3.134,2.463 3.092 C 2.554 3.002,2.078 2.500,1.903 2.500 C 1.836 2.500,1.918 2.650,2.084 2.834 M7.978 8.224 C 8.080 8.347,8.108 8.509,8.040 8.584 C 7.972 8.659,8.000 8.673,8.101 8.615 C 8.304 8.499,9.054 9.207,8.918 9.387 C 8.872 9.449,8.884 9.461,8.947 9.414 C 9.009 9.367,9.290 9.535,9.572 9.786 C 9.853 10.038,9.598 9.739,9.005 9.122 C 8.035 8.114,7.492 7.638,7.978 8.224 M277.211 12.286 C 277.464 12.325,277.839 12.324,278.044 12.284 C 278.249 12.244,278.042 12.213,277.583 12.214 C 277.125 12.216,276.957 12.248,277.211 12.286 M287.167 12.261 C 287.761 12.392,288.833 12.415,288.833 12.296 C 288.833 12.225,288.402 12.175,287.875 12.186 C 287.348 12.197,287.029 12.230,287.167 12.261 M274.125 12.451 C 274.331 12.491,274.669 12.491,274.875 12.451 C 275.081 12.411,274.912 12.379,274.500 12.379 C 274.087 12.379,273.919 12.411,274.125 12.451 M290.292 12.451 C 290.498 12.491,290.835 12.491,291.042 12.451 C 291.248 12.411,291.079 12.379,290.667 12.379 C 290.254 12.379,290.085 12.411,290.292 12.451 M272.000 12.667 C 272.000 12.758,272.112 12.833,272.250 12.833 C 272.387 12.833,272.500 12.758,272.500 12.667 C 272.500 12.575,272.387 12.500,272.250 12.500 C 272.112 12.500,272.000 12.575,272.000 12.667 M292.800 12.700 C 292.956 12.856,293.044 12.856,293.200 12.700 C 293.356 12.544,293.311 12.500,293.000 12.500 C 292.689 12.500,292.644 12.544,292.800 12.700 M20.418 20.334 C 20.584 20.518,20.755 20.634,20.797 20.592 C 20.887 20.502,20.412 20.000,20.236 20.000 C 20.169 20.000,20.251 20.150,20.418 20.334 M21.251 21.168 C 21.417 21.352,21.588 21.468,21.630 21.426 C 21.720 21.335,21.245 20.833,21.069 20.833 C 21.003 20.833,21.085 20.984,21.251 21.168 M22.084 22.001 C 22.251 22.185,22.421 22.301,22.463 22.259 C 22.554 22.169,22.078 21.667,21.903 21.667 C 21.836 21.667,21.918 21.817,22.084 22.001 M219.671 24.993 C 219.537 25.079,219.467 25.189,219.517 25.239 C 219.567 25.289,219.752 25.221,219.929 25.087 C 220.280 24.821,220.067 24.744,219.671 24.993 M28.639 28.054 C 28.839 28.267,28.965 28.492,28.918 28.554 C 28.872 28.616,28.883 28.629,28.945 28.583 C 29.006 28.537,29.212 28.629,29.403 28.787 C 29.594 28.945,29.454 28.758,29.091 28.371 C 28.729 27.984,28.397 27.667,28.354 27.667 C 28.311 27.667,28.439 27.841,28.639 28.054 M207.574 29.903 C 207.396 30.033,207.307 30.196,207.375 30.264 C 207.444 30.333,207.500 30.301,207.500 30.194 C 207.500 30.087,207.608 30.000,207.740 30.000 C 207.872 30.000,208.027 29.925,208.083 29.833 C 208.233 29.590,207.948 29.630,207.574 29.903 M205.505 30.827 C 205.370 30.912,205.300 31.023,205.350 31.073 C 205.400 31.122,205.586 31.054,205.762 30.920 C 206.114 30.654,205.900 30.577,205.505 30.827 M198.455 34.022 C 198.296 34.111,198.168 34.273,198.169 34.383 C 198.171 34.529,198.205 34.532,198.294 34.394 C 198.362 34.290,198.567 34.176,198.750 34.140 C 198.933 34.105,199.007 34.027,198.913 33.968 C 198.819 33.909,198.613 33.933,198.455 34.022 M186.338 39.160 C 186.203 39.245,186.134 39.356,186.184 39.406 C 186.234 39.456,186.419 39.387,186.596 39.254 C 186.947 38.988,186.733 38.910,186.338 39.160 M119.000 54.333 C 119.000 54.425,119.108 54.500,119.240 54.500 C 119.372 54.500,119.527 54.425,119.583 54.333 C 119.640 54.242,119.532 54.167,119.343 54.167 C 119.154 54.167,119.000 54.242,119.000 54.333 M87.833 54.731 C 87.833 54.767,88.058 54.829,88.333 54.869 C 88.608 54.909,88.833 54.880,88.833 54.804 C 88.833 54.729,88.608 54.667,88.333 54.667 C 88.058 54.667,87.833 54.696,87.833 54.731 M90.044 54.953 C 90.297 54.991,90.672 54.990,90.877 54.951 C 91.082 54.911,90.875 54.880,90.417 54.881 C 89.958 54.882,89.791 54.915,90.044 54.953 M109.208 54.953 C 109.460 54.991,109.873 54.991,110.125 54.953 C 110.377 54.915,110.171 54.883,109.667 54.883 C 109.162 54.883,108.956 54.915,109.208 54.953 M93.333 55.167 C 93.333 55.258,93.558 55.333,93.833 55.333 C 94.108 55.333,94.333 55.258,94.333 55.167 C 94.333 55.075,94.108 55.000,93.833 55.000 C 93.558 55.000,93.333 55.075,93.333 55.167 M105.333 55.167 C 105.333 55.258,105.591 55.333,105.907 55.333 C 106.222 55.333,106.527 55.258,106.583 55.167 C 106.646 55.066,106.418 55.000,106.010 55.000 C 105.638 55.000,105.333 55.075,105.333 55.167 " stroke="none" fill="#080404" fill-rule="evenodd"></path><path id="path3" d="M2.084 2.834 C 2.251 3.018,2.421 3.134,2.463 3.092 C 2.554 3.002,2.078 2.500,1.903 2.500 C 1.836 2.500,1.918 2.650,2.084 2.834 M7.978 8.224 C 8.080 8.347,8.108 8.509,8.040 8.584 C 7.972 8.659,8.000 8.673,8.101 8.615 C 8.304 8.499,9.054 9.207,8.918 9.387 C 8.872 9.449,8.884 9.461,8.947 9.414 C 9.009 9.367,9.290 9.535,9.572 9.786 C 9.853 10.038,9.598 9.739,9.005 9.122 C 8.035 8.114,7.492 7.638,7.978 8.224 M277.211 12.286 C 277.464 12.325,277.839 12.324,278.044 12.284 C 278.249 12.244,278.042 12.213,277.583 12.214 C 277.125 12.216,276.957 12.248,277.211 12.286 M287.167 12.261 C 287.761 12.392,288.833 12.415,288.833 12.296 C 288.833 12.225,288.402 12.175,287.875 12.186 C 287.348 12.197,287.029 12.230,287.167 12.261 M274.125 12.451 C 274.331 12.491,274.669 12.491,274.875 12.451 C 275.081 12.411,274.912 12.379,274.500 12.379 C 274.087 12.379,273.919 12.411,274.125 12.451 M290.292 12.451 C 290.498 12.491,290.835 12.491,291.042 12.451 C 291.248 12.411,291.079 12.379,290.667 12.379 C 290.254 12.379,290.085 12.411,290.292 12.451 M272.000 12.667 C 272.000 12.758,272.112 12.833,272.250 12.833 C 272.387 12.833,272.500 12.758,272.500 12.667 C 272.500 12.575,272.387 12.500,272.250 12.500 C 272.112 12.500,272.000 12.575,272.000 12.667 M292.800 12.700 C 292.956 12.856,293.044 12.856,293.200 12.700 C 293.356 12.544,293.311 12.500,293.000 12.500 C 292.689 12.500,292.644 12.544,292.800 12.700 M20.418 20.334 C 20.584 20.518,20.755 20.634,20.797 20.592 C 20.887 20.502,20.412 20.000,20.236 20.000 C 20.169 20.000,20.251 20.150,20.418 20.334 M21.251 21.168 C 21.417 21.352,21.588 21.468,21.630 21.426 C 21.720 21.335,21.245 20.833,21.069 20.833 C 21.003 20.833,21.085 20.984,21.251 21.168 M22.084 22.001 C 22.251 22.185,22.421 22.301,22.463 22.259 C 22.554 22.169,22.078 21.667,21.903 21.667 C 21.836 21.667,21.918 21.817,22.084 22.001 M219.671 24.993 C 219.537 25.079,219.467 25.189,219.517 25.239 C 219.567 25.289,219.752 25.221,219.929 25.087 C 220.280 24.821,220.067 24.744,219.671 24.993 M28.639 28.054 C 28.839 28.267,28.965 28.492,28.918 28.554 C 28.872 28.616,28.883 28.629,28.945 28.583 C 29.006 28.537,29.212 28.629,29.403 28.787 C 29.594 28.945,29.454 28.758,29.091 28.371 C 28.729 27.984,28.397 27.667,28.354 27.667 C 28.311 27.667,28.439 27.841,28.639 28.054 M207.574 29.903 C 207.396 30.033,207.307 30.196,207.375 30.264 C 207.444 30.333,207.500 30.301,207.500 30.194 C 207.500 30.087,207.608 30.000,207.740 30.000 C 207.872 30.000,208.027 29.925,208.083 29.833 C 208.233 29.590,207.948 29.630,207.574 29.903 M205.505 30.827 C 205.370 30.912,205.300 31.023,205.350 31.073 C 205.400 31.122,205.586 31.054,205.762 30.920 C 206.114 30.654,205.900 30.577,205.505 30.827 M198.455 34.022 C 198.296 34.111,198.168 34.273,198.169 34.383 C 198.171 34.529,198.205 34.532,198.294 34.394 C 198.362 34.290,198.567 34.176,198.750 34.140 C 198.933 34.105,199.007 34.027,198.913 33.968 C 198.819 33.909,198.613 33.933,198.455 34.022 M186.338 39.160 C 186.203 39.245,186.134 39.356,186.184 39.406 C 186.234 39.456,186.419 39.387,186.596 39.254 C 186.947 38.988,186.733 38.910,186.338 39.160 M119.000 54.333 C 119.000 54.425,119.108 54.500,119.240 54.500 C 119.372 54.500,119.527 54.425,119.583 54.333 C 119.640 54.242,119.532 54.167,119.343 54.167 C 119.154 54.167,119.000 54.242,119.000 54.333 M87.833 54.731 C 87.833 54.767,88.058 54.829,88.333 54.869 C 88.608 54.909,88.833 54.880,88.833 54.804 C 88.833 54.729,88.608 54.667,88.333 54.667 C 88.058 54.667,87.833 54.696,87.833 54.731 M90.044 54.953 C 90.297 54.991,90.672 54.990,90.877 54.951 C 91.082 54.911,90.875 54.880,90.417 54.881 C 89.958 54.882,89.791 54.915,90.044 54.953 M109.208 54.953 C 109.460 54.991,109.873 54.991,110.125 54.953 C 110.377 54.915,110.171 54.883,109.667 54.883 C 109.162 54.883,108.956 54.915,109.208 54.953 M93.333 55.167 C 93.333 55.258,93.558 55.333,93.833 55.333 C 94.108 55.333,94.333 55.258,94.333 55.167 C 94.333 55.075,94.108 55.000,93.833 55.000 C 93.558 55.000,93.333 55.075,93.333 55.167 M105.333 55.167 C 105.333 55.258,105.591 55.333,105.907 55.333 C 106.222 55.333,106.527 55.258,106.583 55.167 C 106.646 55.066,106.418 55.000,106.010 55.000 C 105.638 55.000,105.333 55.075,105.333 55.167 " stroke="none" fill="#080404" fill-rule="evenodd"></path><path id="path4" d="M2.084 2.834 C 2.251 3.018,2.421 3.134,2.463 3.092 C 2.554 3.002,2.078 2.500,1.903 2.500 C 1.836 2.500,1.918 2.650,2.084 2.834 M7.978 8.224 C 8.080 8.347,8.108 8.509,8.040 8.584 C 7.972 8.659,8.000 8.673,8.101 8.615 C 8.304 8.499,9.054 9.207,8.918 9.387 C 8.872 9.449,8.884 9.461,8.947 9.414 C 9.009 9.367,9.290 9.535,9.572 9.786 C 9.853 10.038,9.598 9.739,9.005 9.122 C 8.035 8.114,7.492 7.638,7.978 8.224 M277.211 12.286 C 277.464 12.325,277.839 12.324,278.044 12.284 C 278.249 12.244,278.042 12.213,277.583 12.214 C 277.125 12.216,276.957 12.248,277.211 12.286 M287.167 12.261 C 287.761 12.392,288.833 12.415,288.833 12.296 C 288.833 12.225,288.402 12.175,287.875 12.186 C 287.348 12.197,287.029 12.230,287.167 12.261 M274.125 12.451 C 274.331 12.491,274.669 12.491,274.875 12.451 C 275.081 12.411,274.912 12.379,274.500 12.379 C 274.087 12.379,273.919 12.411,274.125 12.451 M290.292 12.451 C 290.498 12.491,290.835 12.491,291.042 12.451 C 291.248 12.411,291.079 12.379,290.667 12.379 C 290.254 12.379,290.085 12.411,290.292 12.451 M272.000 12.667 C 272.000 12.758,272.112 12.833,272.250 12.833 C 272.387 12.833,272.500 12.758,272.500 12.667 C 272.500 12.575,272.387 12.500,272.250 12.500 C 272.112 12.500,272.000 12.575,272.000 12.667 M292.800 12.700 C 292.956 12.856,293.044 12.856,293.200 12.700 C 293.356 12.544,293.311 12.500,293.000 12.500 C 292.689 12.500,292.644 12.544,292.800 12.700 M20.418 20.334 C 20.584 20.518,20.755 20.634,20.797 20.592 C 20.887 20.502,20.412 20.000,20.236 20.000 C 20.169 20.000,20.251 20.150,20.418 20.334 M21.251 21.168 C 21.417 21.352,21.588 21.468,21.630 21.426 C 21.720 21.335,21.245 20.833,21.069 20.833 C 21.003 20.833,21.085 20.984,21.251 21.168 M22.084 22.001 C 22.251 22.185,22.421 22.301,22.463 22.259 C 22.554 22.169,22.078 21.667,21.903 21.667 C 21.836 21.667,21.918 21.817,22.084 22.001 M219.671 24.993 C 219.537 25.079,219.467 25.189,219.517 25.239 C 219.567 25.289,219.752 25.221,219.929 25.087 C 220.280 24.821,220.067 24.744,219.671 24.993 M28.639 28.054 C 28.839 28.267,28.965 28.492,28.918 28.554 C 28.872 28.616,28.883 28.629,28.945 28.583 C 29.006 28.537,29.212 28.629,29.403 28.787 C 29.594 28.945,29.454 28.758,29.091 28.371 C 28.729 27.984,28.397 27.667,28.354 27.667 C 28.311 27.667,28.439 27.841,28.639 28.054 M207.574 29.903 C 207.396 30.033,207.307 30.196,207.375 30.264 C 207.444 30.333,207.500 30.301,207.500 30.194 C 207.500 30.087,207.608 30.000,207.740 30.000 C 207.872 30.000,208.027 29.925,208.083 29.833 C 208.233 29.590,207.948 29.630,207.574 29.903 M205.505 30.827 C 205.370 30.912,205.300 31.023,205.350 31.073 C 205.400 31.122,205.586 31.054,205.762 30.920 C 206.114 30.654,205.900 30.577,205.505 30.827 M198.455 34.022 C 198.296 34.111,198.168 34.273,198.169 34.383 C 198.171 34.529,198.205 34.532,198.294 34.394 C 198.362 34.290,198.567 34.176,198.750 34.140 C 198.933 34.105,199.007 34.027,198.913 33.968 C 198.819 33.909,198.613 33.933,198.455 34.022 M186.338 39.160 C 186.203 39.245,186.134 39.356,186.184 39.406 C 186.234 39.456,186.419 39.387,186.596 39.254 C 186.947 38.988,186.733 38.910,186.338 39.160 M119.000 54.333 C 119.000 54.425,119.108 54.500,119.240 54.500 C 119.372 54.500,119.527 54.425,119.583 54.333 C 119.640 54.242,119.532 54.167,119.343 54.167 C 119.154 54.167,119.000 54.242,119.000 54.333 M87.833 54.731 C 87.833 54.767,88.058 54.829,88.333 54.869 C 88.608 54.909,88.833 54.880,88.833 54.804 C 88.833 54.729,88.608 54.667,88.333 54.667 C 88.058 54.667,87.833 54.696,87.833 54.731 M90.044 54.953 C 90.297 54.991,90.672 54.990,90.877 54.951 C 91.082 54.911,90.875 54.880,90.417 54.881 C 89.958 54.882,89.791 54.915,90.044 54.953 M109.208 54.953 C 109.460 54.991,109.873 54.991,110.125 54.953 C 110.377 54.915,110.171 54.883,109.667 54.883 C 109.162 54.883,108.956 54.915,109.208 54.953 M93.333 55.167 C 93.333 55.258,93.558 55.333,93.833 55.333 C 94.108 55.333,94.333 55.258,94.333 55.167 C 94.333 55.075,94.108 55.000,93.833 55.000 C 93.558 55.000,93.333 55.075,93.333 55.167 M105.333 55.167 C 105.333 55.258,105.591 55.333,105.907 55.333 C 106.222 55.333,106.527 55.258,106.583 55.167 C 106.646 55.066,106.418 55.000,106.010 55.000 C 105.638 55.000,105.333 55.075,105.333 55.167 " stroke="none" fill="#080404" fill-rule="evenodd"></path></g></svg>